<?xml version="1.0" encoding="utf-8"?>
<!-- Generator: Adobe Illustrator 24.0.1, SVG Export Plug-In . SVG Version: 6.00 Build 0)  -->
<svg version="1.1" id="Layer_1" xmlns="http://www.w3.org/2000/svg" xmlns:xlink="http://www.w3.org/1999/xlink" x="0px" y="0px"
	 viewBox="0 0 405.3 405.3" style="enable-background:new 0 0 405.3 405.3;" xml:space="preserve">
<style type="text/css">
	.st0{clip-path:url(#SVGID_2_);fill:#FFFFFF;}
</style>
<g>
	<defs>
		<rect id="SVGID_1_" width="405.3" height="405.3"/>
	</defs>
	<clipPath id="SVGID_2_">
		<use xlink:href="#SVGID_1_"  style="overflow:visible;"/>
	</clipPath>
	<path class="st0" d="M373.3,266.9c-25,0-49.5-3.9-72.7-11.6c-11.3-3.9-24.2-0.9-31.6,6.7l-46,34.8c-52.8-28.2-86.6-62-114.4-114.4
		l33.8-44.9c8.5-8.5,11.6-21,7.9-32.6C142.6,81.5,138.7,57,138.7,32c0-17.6-14.4-32-32-32H32C14.4,0,0,14.4,0,32
		c0,205.8,167.5,373.3,373.3,373.3c17.6,0,32-14.4,32-32v-74.5C405.3,281.2,391,266.9,373.3,266.9"/>
</g>
</svg>
