<?xml version="1.0" encoding="utf-8"?>
<!-- Generator: Adobe Illustrator 24.0.1, SVG Export Plug-In . SVG Version: 6.00 Build 0)  -->
<svg version="1.1" id="Layer_1" xmlns="http://www.w3.org/2000/svg" xmlns:xlink="http://www.w3.org/1999/xlink" x="0px" y="0px"
	 viewBox="0 0 230.6 452" style="enable-background:new 0 0 230.6 452;" xml:space="preserve">
<style type="text/css">
	.st0{fill:#FFFFFF;}
</style>
<path class="st0" d="M144.3,111.9v44.8c0,9.1,7.4,16.6,16.6,16.6h66.8l0,68.9h-66.7c-9.1,0-16.6,7.4-16.6,16.6V452H72.7V258.8
	c0-9.2-7.4-16.6-16.6-16.6H0v-68.9h56.1c9.1,0,16.6-7.4,16.6-16.6v-53.1C72.7,39.7,111.2,0,173.2,0l57.3,0.1v63.2l-36.9,0
	c-11.8,0-28.6,1.4-39.3,13.5C145.5,86.9,144.3,100.2,144.3,111.9z"/>
</svg>
