<?xml version="1.0" encoding="utf-8"?>
<!-- Generator: Adobe Illustrator 24.0.1, SVG Export Plug-In . SVG Version: 6.00 Build 0)  -->
<svg version="1.1" id="Capa_1" xmlns="http://www.w3.org/2000/svg" xmlns:xlink="http://www.w3.org/1999/xlink" x="0px" y="0px"
	 viewBox="0 0 341.3 341.3" style="enable-background:new 0 0 341.3 341.3;" xml:space="preserve">
<style type="text/css">
	.st0{fill:#FFFFFF;}
</style>
<g>
	<path class="st0" d="M238.9,170.7c0,37.7-30.6,68.3-68.3,68.3c-37.7,0-68.3-30.6-68.3-68.3c0-37.7,30.6-68.3,68.3-68.3
		C208.4,102.4,238.9,133,238.9,170.7z"/>
	<path class="st0" d="M273.1,0H68.3C30.6,0,0,30.6,0,68.3v204.8c0,37.6,30.6,68.3,68.3,68.3h204.8c37.6,0,68.3-30.6,68.3-68.3V68.3
		C341.3,30.6,310.7,0,273.1,0z M170.7,273.1c-56.6,0-102.4-45.9-102.4-102.4c0-56.6,45.8-102.4,102.4-102.4s102.4,45.8,102.4,102.4
		C273.1,227.2,227.2,273.1,170.7,273.1z M281.6,85.3c-14.1,0-25.6-11.5-25.6-25.6c0-14.1,11.5-25.6,25.6-25.6
		c14.1,0,25.6,11.5,25.6,25.6C307.2,73.9,295.8,85.3,281.6,85.3z"/>
</g>
</svg>
