<?xml version="1.0" encoding="utf-8"?>
<!-- Generator: Adobe Illustrator 24.0.1, SVG Export Plug-In . SVG Version: 6.00 Build 0)  -->
<svg version="1.1" id="Layer_1" xmlns="http://www.w3.org/2000/svg" xmlns:xlink="http://www.w3.org/1999/xlink" x="0px" y="0px"
	 viewBox="0 0 17.5 27" style="enable-background:new 0 0 17.5 27;" xml:space="preserve">
<style type="text/css">
	.st0{fill-rule:evenodd;clip-rule:evenodd;fill:#FFFFFF;}
</style>
<path class="st0" d="M5.8,13.5c0.9-0.8,1.6-1.6,2.4-2.3c2.1-2.1,4.2-4.1,6.3-6.2c0.3-0.3,0.5-0.7,0.6-1c0.1-0.5-0.2-1-0.7-1.3
	c-0.5-0.3-1-0.3-1.5,0.1c-0.3,0.2-0.5,0.5-0.8,0.7c-3,2.9-5.9,5.8-8.9,8.7c-0.9,0.9-0.9,1.6,0,2.5c3.1,3,6.2,6.1,9.3,9.1
	c0.2,0.2,0.5,0.4,0.8,0.6c0.5,0.2,1.1-0.1,1.5-0.5c0.3-0.5,0.3-1.1,0-1.6c-0.1-0.2-0.3-0.3-0.4-0.5c-2.7-2.6-5.3-5.3-8-7.9
	C6.2,13.8,6,13.7,5.8,13.5z"/>
</svg>
