<?xml version="1.0" encoding="utf-8"?>
<!-- Generator: Adobe Illustrator 24.0.1, SVG Export Plug-In . SVG Version: 6.00 Build 0)  -->
<svg version="1.1" id="Layer_1" xmlns="http://www.w3.org/2000/svg" xmlns:xlink="http://www.w3.org/1999/xlink" x="0px" y="0px"
	 viewBox="0 0 433.8 425.9" style="enable-background:new 0 0 433.8 425.9;" xml:space="preserve">
<style type="text/css">
	.st0{fill:#FFFFFF;}
</style>
<g>
	<path class="st0" d="M77.2,145.6v278.2c0,0.9-1.5,2.1-2.9,2.1H10.8c-1.2,0-2.9-1.7-2.9-2.9V145.6c0-1.5,1.2-2.9,2.1-2.9h64.2
		C75.5,142.7,77.2,144.4,77.2,145.6z"/>
	<path class="st0" d="M85.1,42.6c0,11.9-4.6,23-12.7,30.4l-0.2,0.2c-8.3,8.3-19,12.7-29.4,12l-0.3,0c-11.1,0-22.2-4.5-29.8-12
		L12.6,73C4.6,65.6,0,54.5,0,42.6C0,31,4.4,20.4,12.8,12C20.7,4.2,31.2,0,43.3,0c10.8,0,21.3,4.4,29,12C80.7,20.4,85.1,31,85.1,42.6
		z"/>
	<path class="st0" d="M433.8,226.4v199.5h-68.5l-0.8-165.4c0-20.6-5.4-36-16.5-47.1c-12.7-12.7-29.7-19.7-47.9-19.7H300
		c-17.5,0.4-33.7,7.6-45.7,20.1c-12,12.6-18.6,29.5-18.6,47.5v164.6h-77.2V142.7h69.3v57.8l31-31l0.2-0.3
		c15.1-21.2,41.5-34.4,68.9-34.4h16.6C394.6,134.7,433.8,175,433.8,226.4z"/>
</g>
</svg>
