<?xml version="1.0" encoding="utf-8"?>
<!-- Generator: Adobe Illustrator 24.0.1, SVG Export Plug-In . SVG Version: 6.00 Build 0)  -->
<svg version="1.1" id="Layer_1" xmlns="http://www.w3.org/2000/svg" xmlns:xlink="http://www.w3.org/1999/xlink" x="0px" y="0px"
	 viewBox="0 0 747.5 146.8" style="enable-background:new 0 0 747.5 146.8;" xml:space="preserve">
<style type="text/css">
	.st0{fill:#00446B;}
	.st1{clip-path:url(#SVGID_2_);fill:#00446B;}
	.st2{clip-path:url(#SVGID_2_);fill:#FF7B00;}
</style>
<rect x="299.6" y="70" class="st0" width="8" height="39.3"/>
<rect x="299.6" y="55.8" class="st0" width="8" height="8"/>
<polygon class="st0" points="339.4,109.3 339.4,63.8 316.6,63.8 316.6,55.8 370.2,55.8 370.2,63.8 347.4,63.8 347.4,109.3 "/>
<g>
	<defs>
		<rect id="SVGID_1_" width="747.5" height="146.8"/>
	</defs>
	<clipPath id="SVGID_2_">
		<use xlink:href="#SVGID_1_"  style="overflow:visible;"/>
	</clipPath>
	<path class="st1" d="M378.6,109.3V55.9h43.8c2.7,0,5,1,6.9,2.9c1.9,1.9,2.9,4.2,2.9,6.8v15c0,2.6-1,4.9-2.9,6.8
		c-1.9,1.9-4.2,2.9-6.9,2.9h-5.4l14.9,17.6v1.5h-9.4l-16-19.1h-19.9v19.1H378.6z M389.4,82.1h31.9c1.1,0,1.9-0.2,2.2-0.5
		c0.3-0.3,0.5-1.1,0.5-2.2V66.6c0-1.1-0.2-1.8-0.5-2.2c-0.3-0.4-1.1-0.6-2.2-0.6h-31.9c-1.1,0-1.8,0.2-2.2,0.6
		c-0.4,0.4-0.6,1.1-0.6,2.2v12.8c0,1.1,0.2,1.8,0.6,2.2C387.6,81.9,388.3,82.1,389.4,82.1"/>
	<path class="st1" d="M452.5,109.3c-2.7,0-5-0.9-6.8-2.8c-1.9-1.9-2.8-4.2-2.8-6.8V55.8h8v42.8c0,1.1,0.2,1.8,0.6,2.2
		c0.4,0.4,1.1,0.6,2.2,0.6h31.9c1.1,0,1.9-0.2,2.2-0.6c0.3-0.4,0.5-1.1,0.5-2.2V55.8h8.1v43.9c0,2.7-1,5-2.9,6.8
		c-1.9,1.9-4.2,2.8-6.8,2.8H452.5z"/>
	<path class="st1" d="M517.2,109.3c-2.7,0-5-0.9-6.8-2.8c-1.9-1.9-2.8-4.2-2.8-6.8V65.4c0-2.7,0.9-5,2.8-6.8
		c1.9-1.9,4.2-2.8,6.8-2.8h43.7v8h-42.6c-1.1,0-1.8,0.2-2.2,0.6c-0.4,0.4-0.6,1.1-0.6,2.2v32c0,1.1,0.2,1.8,0.6,2.2
		c0.4,0.4,1.1,0.6,2.2,0.6h42.6v8H517.2z"/>
	<polygon class="st1" points="571.7,109.3 571.7,55.8 579.8,55.8 579.8,78.5 594.6,78.5 613.6,55.8 622.9,55.8 622.9,57.3 
		601.7,82.5 623,107.8 623,109.3 613.6,109.3 594.6,86.6 579.8,86.6 579.8,109.3 	"/>
	<polygon class="st1" points="634,109.3 634,55.8 683.1,55.8 683.1,63.8 642.1,63.8 642.1,78.5 675.1,78.5 675.1,86.6 642.1,86.6 
		642.1,101.3 683.1,101.3 683.1,109.3 	"/>
	<path class="st1" d="M693.9,109.3V55.8h43.8c2.7,0,5,0.9,6.9,2.8c1.9,1.9,2.9,4.2,2.9,6.8v34.2c0,2.7-1,5-2.9,6.8
		c-1.9,1.9-4.2,2.8-6.9,2.8H693.9z M704.7,101.3h31.9c1.1,0,1.9-0.2,2.2-0.6c0.3-0.4,0.5-1.1,0.5-2.2v-32c0-1.1-0.2-1.8-0.5-2.2
		c-0.3-0.4-1.1-0.6-2.2-0.6h-31.9c-1.1,0-1.8,0.2-2.2,0.6c-0.4,0.4-0.6,1.1-0.6,2.2v32c0,1.1,0.2,1.8,0.6,2.2
		C702.9,101.1,703.6,101.3,704.7,101.3"/>
	<polygon class="st2" points="307.4,146.8 307.4,131.2 299.6,131.2 299.6,127.6 318.7,127.6 318.7,131.2 311,131.2 311,146.8 	"/>
	<path class="st2" d="M326.6,146.8v-19.1H342c1,0,1.9,0.4,2.6,1.1c0.7,0.7,1.1,1.6,1.1,2.6v5.2c0,1-0.4,1.9-1.1,2.6
		c-0.7,0.7-1.6,1.1-2.6,1.1h-1l4.7,5.6v1h-3.8l-5.5-6.6l-6.3,0v6.5H326.6z M331,136.7h10.2c0.5,0,0.7,0,0.8-0.1
		c0.1-0.1,0.1-0.3,0.1-0.8v-3.7c0-0.5,0-0.8-0.1-0.8c-0.1-0.1-0.3-0.1-0.8-0.1H331c-0.5,0-0.8,0-0.8,0.1c-0.1,0.1-0.1,0.3-0.1,0.8
		v3.7c0,0.5,0,0.8,0.1,0.8S330.5,136.7,331,136.7"/>
	<path class="st2" d="M358,146.8c-1,0-1.9-0.4-2.6-1.1c-0.7-0.7-1.1-1.6-1.1-2.6v-15.4h3.5v14.7c0,0.5,0,0.8,0.1,0.8
		c0.1,0.1,0.3,0.1,0.8,0.1H369c0.5,0,0.8,0,0.8-0.1c0.1-0.1,0.1-0.3,0.1-0.8v-14.7h3.5v15.4c0,1-0.4,1.9-1.1,2.6
		c-0.7,0.7-1.6,1.1-2.6,1.1H358z"/>
	<path class="st2" d="M385.9,146.8c-1,0-1.9-0.4-2.6-1.1c-0.7-0.7-1.1-1.6-1.1-2.6v-11.8c0-1,0.4-1.9,1.1-2.6
		c0.7-0.7,1.6-1.1,2.6-1.1h15.4v3.5h-14.7c-0.5,0-0.8,0-0.8,0.1c-0.1,0.1-0.1,0.3-0.1,0.8v10.2c0,0.5,0,0.8,0.1,0.8
		c0.1,0.1,0.3,0.1,0.8,0.1h14.7v3.5H385.9z"/>
	<polygon class="st2" points="410,146.8 410,127.6 413.5,127.6 413.5,135.4 418,135.4 424.5,127.6 428.4,127.6 428.4,128.6 
		421.2,137.2 428.4,145.8 428.4,146.8 424.5,146.8 418,139 413.5,139 413.5,146.8 	"/>
	<rect x="436.9" y="127.6" class="st2" width="3.5" height="19.1"/>
	<polygon class="st2" points="448.5,146.8 448.5,127.6 452.4,127.6 464.1,141.6 464.1,127.6 467.7,127.6 467.7,146.8 463.8,146.8 
		452,132.8 452,146.8 	"/>
	<path class="st2" d="M480.2,146.8c-1,0-1.9-0.4-2.6-1.1c-0.7-0.7-1.1-1.6-1.1-2.6v-11.8c0-1,0.4-1.9,1.1-2.6
		c0.7-0.7,1.6-1.1,2.6-1.1h11.7c1,0,1.9,0.4,2.6,1.1c0.7,0.7,1.1,1.6,1.1,2.6v1.5h-3.5v-0.7c0-0.5,0-0.8-0.1-0.8
		c-0.1-0.1-0.3-0.1-0.8-0.1h-10.2c-0.5,0-0.8,0-0.8,0.1c-0.1,0.1-0.1,0.3-0.1,0.8v10.2c0,0.5,0,0.8,0.1,0.8c0.1,0.1,0.3,0.1,0.8,0.1
		h10.2c0.5,0,0.8,0,0.8-0.1c0.1-0.1,0.1-0.3,0.1-0.8v-2.8h-4.3v-3.5h7.9v7.2c0,1-0.4,1.9-1.1,2.6c-0.7,0.7-1.6,1.1-2.6,1.1H480.2z"
		/>
	<polygon class="st2" points="518.4,146.8 518.4,127.6 522.3,127.6 529.2,135.9 536.1,127.6 540,127.6 540,146.8 536.5,146.8 
		536.5,132.7 529.2,141.4 521.9,132.8 521.9,146.8 	"/>
	<path class="st2" d="M549,146.8v-15.4c0-1,0.4-1.9,1.1-2.6c0.7-0.7,1.6-1.1,2.6-1.1h11.7c1,0,1.9,0.4,2.6,1.1
		c0.7,0.7,1.1,1.6,1.1,2.6v15.4h-3.5v-6.4h-12.1v6.4H549z M552.5,136.8h12.1v-4.7c0-0.5,0-0.8-0.1-0.8c-0.1-0.1-0.3-0.1-0.8-0.1
		h-10.2c-0.5,0-0.8,0-0.8,0.1s-0.1,0.3-0.1,0.8V136.8z"/>
	<path class="st2" d="M577.1,146.8v-19.1h15.4c1,0,1.9,0.4,2.6,1.1c0.7,0.7,1.1,1.6,1.1,2.6v11.8c0,1-0.4,1.9-1.1,2.6
		c-0.7,0.7-1.6,1.1-2.6,1.1H577.1z M581.5,143.2h10.2c0.5,0,0.8,0,0.8-0.1c0.1-0.1,0.1-0.3,0.1-0.8v-10.2c0-0.5,0-0.8-0.1-0.8
		c-0.1-0.1-0.3-0.1-0.8-0.1h-10.2c-0.5,0-0.8,0-0.8,0.1c-0.1,0.1-0.1,0.3-0.1,0.8v10.2c0,0.5,0,0.8,0.1,0.8
		C580.7,143.2,581,143.2,581.5,143.2"/>
	<polygon class="st2" points="605.1,146.8 605.1,127.6 622.7,127.6 622.7,131.2 608.6,131.2 608.6,135.4 620,135.4 620,139 
		608.6,139 608.6,143.2 622.7,143.2 622.7,146.8 	"/>
	<polygon class="st2" points="645.3,146.8 645.3,127.6 662.9,127.6 662.9,131.2 648.8,131.2 648.8,135.4 660.2,135.4 660.2,139 
		648.8,139 648.8,143.2 662.9,143.2 662.9,146.8 	"/>
	<path class="st2" d="M671.5,146.8v-15.4c0-1,0.4-1.9,1.1-2.6c0.7-0.7,1.6-1.1,2.6-1.1h11.7c1,0,1.9,0.4,2.6,1.1
		c0.7,0.7,1.1,1.6,1.1,2.6v15.4h-3.5v-6.4H675v6.4H671.5z M675,136.8h12.1v-4.7c0-0.5,0-0.8-0.1-0.8c-0.1-0.1-0.3-0.1-0.8-0.1H676
		c-0.5,0-0.8,0-0.8,0.1s-0.1,0.3-0.1,0.8V136.8z"/>
	<path class="st2" d="M703.2,146.8c-1,0-1.9-0.4-2.6-1.1c-0.7-0.7-1.1-1.6-1.1-2.6v-1.5h3.5v0.7c0,0.5,0,0.8,0.1,0.8
		c0.1,0.1,0.3,0.1,0.8,0.1h10.2c0.5,0,0.8,0,0.8-0.1c0.1-0.1,0.1-0.3,0.1-0.8v-2.4c0-0.5,0-0.8-0.1-0.8c-0.1-0.1-0.3-0.1-0.8-0.1
		h-11c-1,0-1.9-0.4-2.6-1.1c-0.7-0.7-1.1-1.6-1.1-2.6v-3.9c0-1,0.4-1.9,1.1-2.6c0.7-0.7,1.6-1.1,2.6-1.1h11.8c1,0,1.9,0.4,2.6,1.1
		c0.7,0.7,1.1,1.6,1.1,2.6v1.5h-3.5v-0.7c0-0.5,0-0.8-0.1-0.8c-0.1-0.1-0.3-0.1-0.8-0.1h-10.2c-0.5,0-0.8,0-0.8,0.1
		c-0.1,0.1-0.1,0.3-0.1,0.8v2.4c0,0.5,0,0.8,0.1,0.8c0.1,0.1,0.3,0.1,0.8,0.1h11c1,0,1.9,0.4,2.6,1.1c0.7,0.7,1.1,1.6,1.1,2.6v3.9
		c0,1-0.4,1.9-1.1,2.6c-0.7,0.7-1.6,1.1-2.6,1.1H703.2z"/>
	<polygon class="st2" points="735.1,146.8 735.1,139.6 726.3,127.6 730.4,127.6 736.9,135.7 743.3,127.6 747.5,127.6 738.6,139.6 
		738.6,146.8 	"/>
	<path class="st1" d="M50.9,111.9l-10.3,8.4h38.2c0.2-2.9,0.8-5.7,1.8-8.4H50.9z M133.4,120.3c-0.1-0.5-0.1-1-0.2-1.5
		c-0.2-1.3-0.6-2.6-1.1-3.8c-0.4-1-0.8-2.1-1.4-3c-1.1-2.1-2.6-4.1-4.3-5.8l-0.2-0.2c-1.5-1.4-3.2-2.7-5.1-3.7
		c-3.4-1.9-7.2-2.9-11.4-2.9c-6.3,0-12.1,2.5-16.4,6.6c-3.5,3.4-6,7.9-6.9,12.8c-0.2,0.9-0.3,1.8-0.4,2.7c0,0.5-0.1,1-0.1,1.5
		c0,0.3,0,0.7,0,1c0.2,6,2.7,11.4,6.6,15.4c0.2,0.2,0.4,0.4,0.5,0.5c4.2,4.2,10.1,6.8,16.5,6.8c12.6,0,23-9.9,23.7-22.3
		c0-0.5,0.1-0.9,0.1-1.4C133.6,122.1,133.5,121.2,133.4,120.3 M125.3,124c-0.5,8.1-7.2,14.5-15.4,14.5c-4.2,0-8-1.7-10.7-4.4
		l-0.4-0.4c-2.5-2.6-4.2-6.1-4.3-10c0-0.2,0-0.4,0-0.6c0-0.3,0-0.6,0-1c0.1-0.6,0.1-1.2,0.2-1.8c0.6-3.2,2.2-6.1,4.5-8.4
		c2.8-2.6,6.5-4.3,10.7-4.3c2.7,0,5.2,0.7,7.4,1.9c1.2,0.6,2.3,1.4,3.3,2.4l0.1,0.2c1.6,1.6,2.9,3.5,3.7,5.7
		c0.3,0.8,0.5,1.6,0.7,2.5c0.2,0.9,0.3,1.8,0.3,2.8C125.3,123.4,125.3,123.7,125.3,124 M264.2,83.7c-1.1-1.2-2.3-2.3-3.6-3.3
		c-1.9-1.4-4.1-2.3-6.5-2.9V65.5c0-4.7-1.7-9-4.6-12.3c-1.1-1.2-2.3-2.3-3.6-3.3c-2.1-1.4-4.5-2.5-7-3c-1-0.2-2-0.3-3-0.3
		c-0.2,0-0.4,0-0.6,0h-34.9v50.4c2.5-1.7,5.4-3.1,8.4-4v-38h26.6c0.9,0,1.7,0.1,2.6,0.3c1.2,0.3,2.4,0.8,3.5,1.6
		c2.8,1.9,4.6,5.1,4.6,8.7v20h4.2c0.9,0,1.7,0.1,2.5,0.3c1.2,0.3,2.4,0.8,3.5,1.6c2.8,1.9,4.6,5.1,4.6,8.7v15.9h-23.8
		c0.1,0.3,0.2,0.7,0.4,1c0.6,1.5,1,3.2,1.3,4.8c0.2,0.8,0.3,1.7,0.4,2.6h30.1V96.1C268.8,91.4,267.1,87,264.2,83.7 M241.4,120.3
		c-0.1-0.5-0.1-1-0.2-1.5c-0.2-1.3-0.6-2.6-1.1-3.8c-0.4-1-0.8-2.1-1.4-3c-1.1-2.1-2.6-4.1-4.3-5.8l-0.2-0.2
		c-1.5-1.4-3.2-2.7-5.1-3.7c-3.4-1.9-7.2-2.9-11.4-2.9c-6.3,0-12.1,2.5-16.4,6.6c-3.5,3.4-6,7.9-6.9,12.8c-0.2,0.9-0.3,1.8-0.4,2.7
		c0,0.5-0.1,1-0.1,1.5c0,0.3,0,0.7,0,1c0.2,6,2.7,11.4,6.6,15.4c0.2,0.2,0.4,0.4,0.5,0.5c4.2,4.2,10.1,6.8,16.5,6.8
		c12.6,0,23-9.9,23.7-22.3c0-0.5,0.1-0.9,0.1-1.4C241.6,122.1,241.5,121.2,241.4,120.3 M233.3,124c-0.4,8.1-7.2,14.5-15.4,14.5
		c-4.2,0-8-1.7-10.7-4.4l-0.4-0.4c-2.5-2.6-4.2-6.1-4.3-10c0-0.2,0-0.4,0-0.6c0-0.3,0-0.6,0-1c0.1-0.6,0.1-1.2,0.2-1.8
		c0.6-3.2,2.2-6.1,4.5-8.4c2.8-2.6,6.5-4.3,10.7-4.3c2.7,0,5.2,0.7,7.4,1.9c1.2,0.6,2.3,1.4,3.3,2.4l0.2,0.2
		c1.6,1.6,2.9,3.5,3.7,5.7c0.3,0.8,0.5,1.6,0.7,2.5c0.2,0.9,0.3,1.8,0.3,2.8C233.3,123.4,233.3,123.7,233.3,124 M128.7,111.9
		c0.1,0.3,0.2,0.7,0.4,1c0.6,1.5,1,3.2,1.3,4.8c0.2,0.8,0.3,1.7,0.4,2.6h56c0.2-2.9,0.8-5.7,1.8-8.4H128.7z"/>
	<polygon class="st1" points="100.8,59.5 50.9,59.5 40.6,67.9 100.8,67.9 	"/>
	<polygon class="st1" points="0,94.6 22.6,94.6 22.6,86.2 10.3,86.2 	"/>
	<polygon class="st1" points="73.8,86.2 47.7,86.2 37.3,94.6 73.8,94.6 	"/>
	<polygon class="st2" points="204.2,5 182.9,26.9 176.3,33.9 168.4,42.2 150,61.7 136.6,42.2 131.3,34.6 141.4,34.6 146.7,42.2 
		151,48.5 156.9,42.2 164.8,33.9 178.4,19.5 192,5.2 	"/>
	<path class="st1" d="M109.5,33.9H80.4l-10.3,8.3h38.7c0-0.2,0-0.3,0-0.5C108.8,39.1,109,36.4,109.5,33.9"/>
	<path class="st1" d="M171.3,5.6C171.3,5.6,171.3,5.6,171.3,5.6C171.3,5.6,171.3,5.6,171.3,5.6"/>
	<path class="st2" d="M150.5,83.5c23,0,41.7-18.7,41.7-41.7c0-2.4-0.2-4.8-0.6-7.1l-7.8,8.2c-0.1,1.8-0.3,3.5-0.6,5.1
		c-2.8,14.5-14.9,25.7-29.8,27c-1,0.1-2,0.1-3,0.1c-2,0-3.9-0.2-5.8-0.5c-15.5-2.7-27.4-16.2-27.6-32.4c0-0.2,0-0.3,0-0.5
		c0-2.1,0.2-4.2,0.6-6.2c0.1-0.6,0.2-1.1,0.4-1.7c0.5-2,1.2-3.9,2-5.8c5.2-11.6,16.9-19.8,30.4-19.8c6.2,0,12.4,1.8,17.6,5l5.8-6.2
		c-0.9-0.6-1.7-1.1-2.6-1.7c0,0,0,0,0,0c-3.6-2.1-7.5-3.6-11.5-4.5c0,0-0.1,0-0.1,0c-1.9-0.4-3.9-0.7-5.8-0.9c-0.2,0-0.4,0-0.6,0
		C152.4,0,151.5,0,150.5,0c0,0,0,0,0,0c-1.2,0-2.3,0.1-3.4,0.2c-0.2,0-0.3,0-0.5,0c-1.1,0.1-2.2,0.3-3.2,0.4c-0.2,0-0.4,0.1-0.5,0.1
		c-1.1,0.2-2.1,0.4-3.2,0.7c-0.1,0-0.2,0.1-0.3,0.1c-15.1,4.2-26.8,16.8-29.8,32.3h0c-0.5,2.6-0.8,5.2-0.8,7.9c0,0.2,0,0.3,0,0.5h0
		C109.1,65,127.7,83.5,150.5,83.5"/>
</g>
</svg>
