<?xml version="1.0" encoding="utf-8"?>
<!-- Generator: Adobe Illustrator 24.0.1, SVG Export Plug-In . SVG Version: 6.00 Build 0)  -->
<svg version="1.1" id="Layer_1" xmlns="http://www.w3.org/2000/svg" xmlns:xlink="http://www.w3.org/1999/xlink" x="0px" y="0px"
	 viewBox="0 0 480 338.7" style="enable-background:new 0 0 480 338.7;" xml:space="preserve">
<style type="text/css">
	.st0{clip-path:url(#SVGID_2_);fill:#FF7B00;}
</style>
<g>
	<defs>
		<rect id="SVGID_1_" width="480" height="338.7"/>
	</defs>
	<clipPath id="SVGID_2_">
		<use xlink:href="#SVGID_1_"  style="overflow:visible;"/>
	</clipPath>
	<path class="st0" d="M89.6,221.2c-10.5,26.5-27.1,52.8-49.4,78c-7.1,8-8,19.5-2.2,28.6c4.4,7,11.9,10.9,19.7,10.9
		c2.2,0,4.5-0.3,6.7-1c47.1-13.8,157.1-62.7,160.1-219.1c1.1-60.4-43-112.3-100.5-118.1C92.2-2.6,60.5,7.7,37,28.9
		C13.5,50.2,0,80.6,0,112.3C0,165.1,37.5,211.3,89.6,221.2 M58.5,52.7C73.4,39.2,92.2,32,112.2,32c2.8,0,5.7,0.1,8.5,0.4
		c41.1,4.2,72.6,41.8,71.8,85.6c-2,108.2-60.6,156.9-109.1,178.7c15.4-20.8,27.4-42.1,36-63.8c3.3-8.4,2.8-17.9-1.5-25.9
		c-4.5-8.4-12.5-14.3-22-16.3C58.8,183.1,32,150,32,112.3C32,89.6,41.7,67.9,58.5,52.7z"/>
	<path class="st0" d="M293.5,327.8c4.4,7,11.9,10.9,19.7,10.9c2.2,0,4.5-0.3,6.7-1C367.1,324,477,275.1,480,118.7v0
		C481.1,58.3,437,6.4,379.4,0.6c-31.7-3.2-63.4,7.1-86.9,28.4c-23.5,21.3-37,51.6-37,83.3c0,52.9,37.5,99.1,89.6,109
		c-10.5,26.5-27.1,52.8-49.4,78C288.6,307.3,287.8,318.8,293.5,327.8 M374.8,233c3.3-8.4,2.8-17.9-1.5-25.9
		c-4.5-8.4-12.5-14.4-22-16.4c-37-7.7-63.8-40.8-63.8-78.6c0-22.6,9.7-44.4,26.5-59.6C328.9,39.2,347.8,32,367.7,32
		c2.8,0,5.7,0.1,8.5,0.4c41.1,4.2,72.6,41.8,71.8,85.6c-2,108.2-60.6,156.9-109.1,178.7C354.2,276,366.2,254.7,374.8,233"/>
</g>
</svg>
