<?xml version="1.0" encoding="utf-8"?>
<!-- Generator: Adobe Illustrator 24.0.1, SVG Export Plug-In . SVG Version: 6.00 Build 0)  -->
<svg version="1.1" id="Layer_1" xmlns="http://www.w3.org/2000/svg" xmlns:xlink="http://www.w3.org/1999/xlink" x="0px" y="0px"
	 viewBox="0 0 394.5 359.1" style="enable-background:new 0 0 394.5 359.1;" xml:space="preserve">
<style type="text/css">
	.st0{fill:#FFFFFF;}
</style>
<path class="st0" d="M383.1,74.5c-10.5,14.1-15.8,32-14.9,50.6c3.9,77.1-17,136.8-62.3,177.6C253,350.4,167.7,369.1,71.8,354
	c-17.4-2.7-35.3-8.8-50.2-14.9c30.1-10.4,53.3-19.6,90.9-37.4l52.4-24.8l-57.9-3.7c-27.7-1.8-50.8-15.2-65-37
	c7.5-0.4,14.8-1.7,22-3.7l55.2-15.4l-55.6-13.6c-27-6.6-42.4-22.8-50.6-35.2c-5.4-8.2-8.9-16.5-11-24.2c5.6,1.5,12.1,2.6,22.6,3.6
	l51.5,5.1l-40.8-31.8C5.9,98.1-5.9,63.7,2.8,30.6c91.8,95.2,199.5,88,210.3,90.5c-2.4-23.2-2.5-23.2-3.1-25.4
	c-13.9-49.1,16.5-74,30.3-82.5C269-4.4,314.5-7.1,346,21.9c6.8,6.3,16,8.7,24.6,6.6c7.7-1.9,14.1-4,20.3-6.2L378,59.3l16.5,0
	C391.4,63.5,387.6,68.5,383.1,74.5z"/>
</svg>
