<?xml version="1.0" encoding="utf-8"?>
<!-- Generator: Adobe Illustrator 24.0.1, SVG Export Plug-In . SVG Version: 6.00 Build 0)  -->
<svg version="1.1" id="Layer_1" xmlns="http://www.w3.org/2000/svg" xmlns:xlink="http://www.w3.org/1999/xlink" x="0px" y="0px"
	 viewBox="0 0 53 55" style="enable-background:new 0 0 53 55;" xml:space="preserve">
<style type="text/css">
	.st0{clip-path:url(#SVGID_2_);fill-rule:evenodd;clip-rule:evenodd;fill:#FF7B00;}
	.st1{clip-path:url(#SVGID_2_);fill-rule:evenodd;clip-rule:evenodd;fill:#00446B;}
</style>
<g>
	<defs>
		<rect id="SVGID_1_" width="53" height="55"/>
	</defs>
	<clipPath id="SVGID_2_">
		<use xlink:href="#SVGID_1_"  style="overflow:visible;"/>
	</clipPath>
	<path class="st0" d="M8.1,44.1H3.6c-2,0-3.6-1.6-3.6-3.6v-6.9c0-2,1.6-3.6,3.6-3.6h4.5C8.6,30,9,30.4,9,30.8v12.4
		C9,43.7,8.6,44.1,8.1,44.1 M3.6,31.7c-1,0-1.9,0.9-1.9,1.9v6.9c0,1,0.9,1.9,1.9,1.9h3.7V31.7H3.6z"/>
	<path class="st0" d="M49.4,44.1h-4.5c-0.5,0-0.9-0.4-0.9-0.9V30.8c0-0.5,0.4-0.9,0.9-0.9h4.5c2,0,3.6,1.6,3.6,3.6v6.9
		C53,42.5,51.3,44.1,49.4,44.1 M45.7,42.4h3.7c1,0,1.9-0.9,1.9-1.9v-6.9c0-1-0.9-1.9-1.9-1.9h-3.7V42.4z"/>
	<path class="st0" d="M42.3,52.8H28.6c-0.5,0-0.9-0.4-0.9-0.9c0-0.5,0.4-0.9,0.9-0.9h13.7c2.9,0,5.3-2.4,5.3-5.3v-2.6
		c0-0.5,0.4-0.9,0.9-0.9c0.5,0,0.9,0.4,0.9,0.9v2.6C49.3,49.7,46.2,52.8,42.3,52.8z"/>
	<path class="st0" d="M27,55h-2.5c-1.3,0-2.4-1.1-2.4-2.4v-1.3c0-1.3,1.1-2.4,2.4-2.4H27c1.3,0,2.4,1.1,2.4,2.4v1.3
		C29.4,53.9,28.4,55,27,55 M24.5,50.7c-0.4,0-0.7,0.3-0.7,0.7v1.3c0,0.4,0.3,0.7,0.7,0.7H27c0.4,0,0.7-0.3,0.7-0.7v-1.3
		c0-0.4-0.3-0.7-0.7-0.7H24.5z"/>
	<path class="st0" d="M50.2,27.5h-3.4c-0.5,0-0.9-0.4-0.9-0.9v-2.1c0-5.2-2-10.1-5.7-13.7c-3.6-3.6-8.5-5.7-13.6-5.7h-0.1
		c-5.1,0-9.9,2-13.6,5.7c-3.7,3.7-5.8,8.6-5.8,13.8v2c0,0.5-0.4,0.9-0.9,0.9H2.8c-0.5,0-0.9-0.4-0.9-0.9v-2.1c0-3.3,0.7-6.5,1.9-9.6
		c1.2-2.9,3-5.6,5.3-7.8c2.3-2.3,4.9-4,7.8-5.3c3-1.3,6.3-1.9,9.6-1.9C29.8,0,33,0.7,36,1.9c2.9,1.2,5.6,3,7.8,5.3
		c2.3,2.3,4,4.9,5.3,7.8c1.3,3,1.9,6.3,1.9,9.6v2.1C51,27.2,50.7,27.5,50.2,27.5z M47.6,25.8h1.7v-1.3c0-3.1-0.6-6.1-1.8-8.9
		c-1.1-2.7-2.8-5.2-4.9-7.3c-2.1-2.1-4.5-3.7-7.3-4.9c-2.8-1.2-5.8-1.8-8.9-1.8c-3.1,0-6.1,0.6-8.9,1.8c-2.7,1.2-5.2,2.8-7.3,4.9
		s-3.7,4.5-4.9,7.3c-1.2,2.8-1.8,5.8-1.8,8.9v1.3h1.7v-1.1c0-2.9,0.6-5.7,1.7-8.3c1.1-2.5,2.6-4.8,4.6-6.8c2-1.9,4.2-3.5,6.7-4.5
		C21,4,23.8,3.4,26.6,3.4c5.6,0,10.9,2.2,14.8,6.2c4,4,6.2,9.3,6.2,14.9L47.6,25.8L47.6,25.8z"/>
	<path class="st0" d="M4.5,31.7c-0.5,0-0.9-0.4-0.9-0.9v-4.1c0-0.5,0.4-0.9,0.9-0.9s0.9,0.4,0.9,0.9v4.1C5.4,31.3,5,31.7,4.5,31.7"
		/>
	<path class="st0" d="M48.5,31.7c-0.5,0-0.9-0.4-0.9-0.9v-4.1c0-0.5,0.4-0.9,0.9-0.9c0.5,0,0.9,0.4,0.9,0.9v4.1
		C49.3,31.3,48.9,31.7,48.5,31.7"/>
	<path class="st1" d="M26.5,39.9c-1.7,0-3.3-0.3-4.8-1c-1.5-0.6-2.8-1.5-3.9-2.6c-1.1-1.1-2-2.4-2.6-3.9c-0.6-1.5-1-3.1-1-4.8
		c0-1.7,0.3-3.3,1-4.8c0.6-1.5,1.5-2.8,2.6-3.9c1.1-1.1,2.4-2,3.9-2.6c1.5-0.6,3.1-1,4.8-1c1.7,0,3.3,0.3,4.8,1
		c1.5,0.6,2.8,1.5,3.9,2.6c1.1,1.1,2,2.4,2.6,3.9c0.6,1.5,1,3.1,1,4.8c0,1.7-0.3,3.3-1,4.8c-0.6,1.5-1.5,2.8-2.6,3.9
		c-1.1,1.1-2.4,2-3.9,2.6C29.8,39.6,28.2,39.9,26.5,39.9z M26.5,17.2c-5.8,0-10.5,4.7-10.5,10.5c0,5.8,4.7,10.5,10.5,10.5
		S37,33.5,37,27.7C37.1,21.9,32.3,17.2,26.5,17.2z"/>
	<path class="st1" d="M26.5,32c-0.5,0-0.9-0.4-0.9-0.9v-2.2c0-0.5,0.4-0.9,0.9-0.9c1.4,0,2.6-1.2,2.6-2.6c0-1.4-1.2-2.6-2.6-2.6
		c-1.4,0-2.6,1.2-2.6,2.6c0,0.5-0.4,0.9-0.9,0.9c-0.5,0-0.9-0.4-0.9-0.9c0-2.4,1.9-4.3,4.3-4.3s4.3,1.9,4.3,4.3
		c0,2.1-1.5,3.8-3.5,4.2v1.5C27.4,31.6,27,32,26.5,32"/>
	<circle class="st1" cx="26.5" cy="33.9" r="0.9"/>
</g>
</svg>
