<?xml version="1.0" encoding="utf-8"?>
<!-- Generator: Adobe Illustrator 24.0.1, SVG Export Plug-In . SVG Version: 6.00 Build 0)  -->
<svg version="1.1" id="Layer_1" xmlns="http://www.w3.org/2000/svg" xmlns:xlink="http://www.w3.org/1999/xlink" x="0px" y="0px"
	 viewBox="0 0 47.1 55" style="enable-background:new 0 0 47.1 55;" xml:space="preserve">
<style type="text/css">
	.st0{clip-path:url(#SVGID_2_);fill-rule:evenodd;clip-rule:evenodd;fill:#00446B;}
	.st1{clip-path:url(#SVGID_2_);fill-rule:evenodd;clip-rule:evenodd;fill:#FF7B00;}
	.st2{clip-path:url(#SVGID_2_);fill:#00446B;}
</style>
<g>
	<defs>
		<rect id="SVGID_1_" width="47.1" height="55"/>
	</defs>
	<clipPath id="SVGID_2_">
		<use xlink:href="#SVGID_1_"  style="overflow:visible;"/>
	</clipPath>
	<path class="st0" d="M23.5,47.8c-2.3,0-4.5-0.4-6.5-1.3c-2-0.8-3.8-2.1-5.4-3.6S8.9,39.5,8,37.5c-0.9-2.1-1.3-4.3-1.3-6.5
		s0.4-4.5,1.3-6.5c0.9-2,2.1-3.8,3.6-5.4s3.3-2.8,5.4-3.6c2.1-0.9,4.3-1.3,6.5-1.3s4.5,0.4,6.5,1.3c2,0.9,3.8,2.1,5.4,3.6
		c1.6,1.6,2.8,3.3,3.6,5.4c0.9,2.1,1.3,4.3,1.3,6.5s-0.4,4.5-1.3,6.5c-0.8,2-2.1,3.8-3.6,5.4c-1.6,1.6-3.3,2.8-5.4,3.6
		C28,47.3,25.8,47.8,23.5,47.8z M23.5,15.9c-8.3,0-15.1,6.8-15.1,15.1c0,8.3,6.8,15.1,15.1,15.1c8.3,0,15.1-6.8,15.1-15.1
		C38.7,22.6,31.9,15.9,23.5,15.9"/>
	<path class="st1" d="M42.3,19c-0.2,0-0.4-0.1-0.6-0.3c-0.3-0.3-0.3-0.9,0-1.2l3.1-3.1c0.7-0.7,0.7-1.9,0-2.7l-2.1-2.1
		C42,9,40.8,9,40,9.7l-3.1,3.1c-0.3,0.3-0.9,0.3-1.2,0c-0.3-0.3-0.3-0.9,0-1.2l3.1-3.1c1.4-1.4,3.7-1.4,5.1,0l2.1,2.1
		c1.4,1.4,1.4,3.7,0,5.1l-3.1,3.1C42.7,18.9,42.5,19,42.3,19z"/>
	<path class="st1" d="M4.8,19c-0.2,0-0.4-0.1-0.6-0.3l-3.1-3.1c-1.4-1.4-1.4-3.7,0-5.1l2.1-2.1c1.4-1.4,3.7-1.4,5.1,0l3.1,3.1
		c0.3,0.3,0.3,0.9,0,1.2c-0.3,0.3-0.9,0.3-1.2,0L7.1,9.7C6.3,9,5.1,9,4.4,9.7l-2.1,2.1c-0.7,0.7-0.7,1.9,0,2.7l3.1,3.1
		c0.3,0.3,0.3,0.9,0,1.2C5.2,18.9,5,19,4.8,19"/>
	<path class="st1" d="M23.5,9.1c-0.5,0-0.9-0.4-0.9-0.9V0.9c0-0.5,0.4-0.9,0.9-0.9c0.5,0,0.9,0.4,0.9,0.9v7.4
		C24.4,8.8,24,9.1,23.5,9.1"/>
	<path class="st1" d="M27.8,1.7h-8.6c-0.5,0-0.9-0.4-0.9-0.9S18.8,0,19.3,0h8.6c0.5,0,0.9,0.4,0.9,0.9C28.7,1.4,28.3,1.7,27.8,1.7z"
		/>
	<path class="st2" d="M23.5,14.1c-0.5,0-0.9,0.4-0.9,0.9v3.5c0,0.5,0.4,0.9,0.9,0.9c0.5,0,0.8-0.4,0.9-0.9V15
		C24.4,14.5,24,14.1,23.5,14.1"/>
	<path class="st2" d="M12.8,19.1c-0.3-0.3-0.9-0.3-1.2,0c-0.3,0.3-0.3,0.9,0,1.2l2.5,2.5c0.2,0.2,0.4,0.3,0.6,0.3s0.4-0.1,0.6-0.3
		c0.3-0.3,0.3-0.9,0-1.2L12.8,19.1z"/>
	<path class="st2" d="M12,31c0-0.5-0.4-0.9-0.9-0.9H7.6c-0.5,0-0.9,0.4-0.9,0.9c0,0.5,0.4,0.9,0.9,0.9h3.5C11.6,31.8,12,31.4,12,31"
		/>
	<path class="st2" d="M14.2,39.1l-2.5,2.5c-0.3,0.3-0.3,0.9,0,1.2c0.2,0.2,0.4,0.3,0.6,0.3s0.4-0.1,0.6-0.3l2.5-2.5
		c0.3-0.3,0.3-0.9,0-1.2C15,38.8,14.5,38.8,14.2,39.1"/>
	<path class="st2" d="M23.5,42.5c-0.5,0-0.9,0.4-0.9,0.9v3.5c0,0.5,0.4,0.9,0.9,0.9c0.5,0,0.8-0.4,0.9-0.8v-3.6
		C24.4,42.9,24,42.5,23.5,42.5"/>
	<path class="st2" d="M32.9,39.1c-0.3-0.3-0.9-0.3-1.2,0c-0.3,0.3-0.3,0.9,0,1.2l2.5,2.5c0.2,0.2,0.4,0.3,0.6,0.3
		c0.2,0,0.4-0.1,0.6-0.3c0.3-0.3,0.3-0.9,0-1.2L32.9,39.1z"/>
	<path class="st2" d="M39.5,30.1H36c-0.5,0-0.9,0.4-0.9,0.9c0,0.5,0.4,0.9,0.9,0.9h3.5c0.5,0,0.9-0.4,0.9-0.9
		C40.4,30.5,40,30.1,39.5,30.1"/>
	<path class="st2" d="M32.3,23c0.2,0,0.4-0.1,0.6-0.3l2.5-2.5c0.3-0.3,0.3-0.9,0-1.2c-0.3-0.3-0.9-0.3-1.2,0l-2.5,2.5
		c-0.3,0.3-0.3,0.9,0,1.2C31.9,23,32.1,23,32.3,23"/>
	<path class="st1" d="M29.9,34.7c-0.1,0-0.2,0-0.3-0.1l-6.4-2.8c-0.3-0.1-0.5-0.4-0.5-0.8v-6.3c0-0.5,0.4-0.9,0.9-0.9
		c0.5,0,0.9,0.4,0.9,0.9v5.7l5.9,2.6c0.4,0.2,0.6,0.7,0.4,1.1C30.6,34.5,30.3,34.7,29.9,34.7z"/>
	<path class="st1" d="M41.3,55c-0.3,0-0.5-0.1-0.7-0.3l-4-5.2c-0.3-0.4-0.2-0.9,0.2-1.2c0.4-0.3,0.9-0.2,1.2,0.2l4,5.2
		c0.3,0.4,0.2,0.9-0.2,1.2C41.7,54.9,41.5,55,41.3,55z"/>
	<path class="st1" d="M5.8,55c-0.2,0-0.4-0.1-0.5-0.2c-0.4-0.3-0.4-0.8-0.2-1.2l4-5.2c0.3-0.4,0.8-0.4,1.2-0.2
		c0.4,0.3,0.4,0.8,0.2,1.2l-4,5.2C6.3,54.9,6,55,5.8,55z"/>
	<path class="st0" d="M23.5,54.5c-3.2,0-6.3-0.6-9.2-1.8c-2.8-1.2-5.3-2.9-7.5-5c-2.2-2.2-3.9-4.7-5-7.5C0.6,37.2,0,34.2,0,31
		c0-3.2,0.6-6.3,1.8-9.2c1.2-2.8,2.9-5.3,5-7.5c2.2-2.2,4.7-3.9,7.5-5c2.9-1.2,6-1.8,9.2-1.8s6.3,0.6,9.2,1.8c2.8,1.2,5.3,2.9,7.5,5
		c2.2,2.2,3.9,4.7,5,7.5c1.2,2.9,1.8,6,1.8,9.2c0,3.2-0.6,6.3-1.8,9.2c-1.2,2.8-2.9,5.3-5,7.5c-2.2,2.2-4.7,3.9-7.5,5
		C29.8,53.9,26.7,54.5,23.5,54.5z M23.5,9.1c-12,0-21.8,9.8-21.8,21.8s9.8,21.8,21.8,21.8S45.4,43,45.4,31
		C45.4,18.9,35.6,9.1,23.5,9.1z"/>
</g>
</svg>
