<?xml version="1.0" encoding="utf-8"?>
<!-- Generator: Adobe Illustrator 24.0.1, SVG Export Plug-In . SVG Version: 6.00 Build 0)  -->
<svg version="1.1" id="Layer_1" xmlns="http://www.w3.org/2000/svg" xmlns:xlink="http://www.w3.org/1999/xlink" x="0px" y="0px"
	 viewBox="0 0 54.5 54.5" style="enable-background:new 0 0 54.5 54.5;" xml:space="preserve">
<style type="text/css">
	.st0{clip-path:url(#SVGID_2_);fill:#00446B;}
	.st1{clip-path:url(#SVGID_2_);fill:#FF7B00;}
</style>
<g>
	<defs>
		<rect id="SVGID_1_" width="54.5" height="54.5"/>
	</defs>
	<clipPath id="SVGID_2_">
		<use xlink:href="#SVGID_1_"  style="overflow:visible;"/>
	</clipPath>
	<path class="st0" d="M13.1,46.1c-1.3,0-2.4,1.1-2.4,2.4c0,1.3,1.1,2.4,2.4,2.4s2.4-1.1,2.4-2.4C15.5,47.2,14.4,46.1,13.1,46.1
		 M13.1,49.7c-0.6,0-1.1-0.5-1.1-1.1c0-0.6,0.5-1.1,1.1-1.1c0.6,0,1.1,0.5,1.1,1.1C14.2,49.2,13.7,49.7,13.1,49.7"/>
	<path class="st0" d="M41.4,46.1c-1.3,0-2.4,1.1-2.4,2.4c0,1.3,1.1,2.4,2.4,2.4c1.3,0,2.4-1.1,2.4-2.4
		C43.8,47.2,42.8,46.1,41.4,46.1 M41.4,49.7c-0.6,0-1.1-0.5-1.1-1.1c0-0.6,0.5-1.1,1.1-1.1c0.6,0,1.1,0.5,1.1,1.1
		C42.6,49.2,42.1,49.7,41.4,49.7"/>
	<path class="st0" d="M38.8,26.6c-1,0-1.9-0.8-2-1.8h-1.3c0.1,1.7,1.6,3,3.3,3c1.7,0,3.2-1.3,3.3-3h-1.3
		C40.7,25.8,39.8,26.6,38.8,26.6"/>
	<path class="st0" d="M37.6,20.8h-1.3c-0.1-0.5-0.6-0.9-1.1-0.9s-1,0.4-1.1,0.9h-1.3c0.1-1.2,1.2-2.2,2.4-2.2S37.5,19.6,37.6,20.8"
		/>
	<path class="st0" d="M44.7,20.8h-1.3c-0.1-0.5-0.6-0.9-1.1-0.9s-1,0.4-1.1,0.9h-1.3c0.1-1.2,1.2-2.2,2.4-2.2
		C43.6,18.6,44.6,19.6,44.7,20.8"/>
	<path class="st1" d="M51.6,27.7c-1.2-1.2-2.6-2-4.2-2.5l-0.2-0.1l0.1-0.3c0-0.1,0-0.2,0-0.3l0-0.2h0.2c1.9,0,3.4-1.5,3.4-3.3
		c0-0.9-0.4-1.8-1.1-2.4l-0.1-0.1l0.1-0.2c0.7-1.3,1.1-2.8,1.1-4.2c0-4.9-4-8.8-8.8-8.8h-5c-2.2,0-4.2,1.4-5,3.5l0,0.1l-0.1,0
		c-3.1,0.6-5.3,3.3-5.3,6.4c0,1.1,0.3,2.2,0.8,3.2l0.1,0.1l-0.1,0.1c-0.5,0.6-0.8,1.4-0.8,2.2c0,1.8,1.5,3.3,3.3,3.3h0.2l0.1,0.3
		l0,0.2l-0.2,0c-2,0.4-3.4,2.1-3.4,4.1v8.2h-2.3V19.5h-6.7l3.3-4.7c1.1-1.6,1.7-3.4,1.7-5.4c0-5.2-4.2-9.4-9.4-9.4H13
		C7.8,0,3.5,4.2,3.5,9.4c0,1.9,0.6,3.8,1.7,5.4l3.3,4.7H1.8v17.8l-0.2,0.1c-1,0.3-1.6,1.3-1.6,2.3v7.1c0,1.3,1.1,2.4,2.4,2.4h4.7
		l0,0.2c0.4,2.9,3,5.1,5.9,5.1c2.9,0,5.5-2.2,5.9-5.1l0-0.2h16.5l0,0.2c0.4,2.9,3,5.1,5.9,5.1c2.9,0,5.5-2.2,5.9-5.1l0-0.2h7.1V34.6
		C54.5,32,53.5,29.5,51.6,27.7 M6.3,14.1c-1-1.4-1.5-3-1.5-4.6c0-4.5,3.7-8.2,8.2-8.2h0.2c4.5,0,8.2,3.7,8.2,8.2
		c0,1.7-0.5,3.3-1.5,4.6l-5.9,8.5c-0.2,0.3-0.5,0.4-0.9,0.4c-0.4,0-0.7-0.2-0.9-0.4L6.3,14.1z M8.4,20.8h1l1.8,2.5
		c0.4,0.6,1.2,1,1.9,1c0.8,0,1.5-0.4,1.9-1l1.8-2.5h1v5.8H8.4V20.8z M3,20.8h4v7.1H19v-7.1h4v16.5H3V20.8z M1.3,42.1h3.9l-0.6,2.3
		H1.3V42.1z M13.1,53.2c-2.6,0-4.7-2.1-4.7-4.7c0-2.6,2.1-4.7,4.7-4.7c2.6,0,4.7,2.1,4.7,4.7C17.7,51.1,15.6,53.2,13.1,53.2
		 M26.6,47.9H19l0-0.2c-0.4-2.9-3-5.1-5.9-5.1c-2.9,0-5.5,2.2-5.9,5.1l0,0.2H2.4c-0.6,0-1.1-0.5-1.1-1.1v-1.1h4.3l1.2-4.8H1.3v-1.1
		c0-0.6,0.5-1.1,1.1-1.1h24.2V47.9z M47.6,23.1h-0.3V19h0.3c1.1,0,2,0.9,2,2C49.7,22.1,48.8,23.1,47.6,23.1 M30.2,23.1h-0.3
		c-1.1,0-2-0.9-2-2c0-1.1,0.9-2,2-2h0.3V23.1z M30.2,14.8v2.9h-0.3c-0.4,0-0.8,0.1-1.1,0.2L28.6,18l-0.1-0.2
		c-0.4-0.8-0.6-1.6-0.6-2.4c0-2.9,2.4-5.3,5.3-5.3h4.5V8.9h-4.2l0.2-0.4c0.8-1.2,2-1.9,3.4-1.9h5c4.1,0,7.5,3.4,7.5,7.5
		c0,1.2-0.3,2.5-0.9,3.6l-0.1,0.2l-0.2,0c-0.3-0.1-0.6-0.1-0.8-0.1h-0.3v-1.6L47,16c-1.6-0.5-3-1.6-3.9-3l-0.5-0.8l-5.2,2.6
		c-1.5,0.7-3.1,1.1-4.8,1.1c-0.6,0-1.1-0.5-1.1-1.1c0-0.6,0.5-1.1,1.1-1.1h0.6v-1.3h-0.6C31.2,12.4,30.2,13.5,30.2,14.8 M46.8,34.3
		l1.3-1.3c0.1-0.1,0.2-0.3,0.2-0.5s-0.1-0.3-0.2-0.5c-0.3-0.3-0.6-0.3-0.9,0l-1.4,1.4l-0.2-0.1c-1-0.8-2.5-0.7-3.4,0.1L41.8,34
		l-0.2-0.1c-0.3-0.2-0.7-0.2-1-0.2h-0.3v-0.3c0-0.6-0.2-1.2-0.5-1.7l-0.2-0.4l0.4,0c1.6-0.1,3.2-0.6,4.4-1.7l0.1-0.1l0.1,0
		c1.3,0.1,2.5,0.6,3.4,1.6c1,1,1.6,2.4,1.6,3.8v1.5L46.8,34.3z M48.5,37.2h-2.3l0.1-0.3c0.1-0.2,0.1-0.5,0.2-0.8l0-0.5L48.5,37.2z
		 M42.7,35.1l-0.1-0.2l0.5-0.5c0.2-0.2,0.6-0.4,0.9-0.4c0.7,0,1.2,0.6,1.2,1.3V36c0,0.7-0.6,1.2-1.2,1.2h-1v-1.1
		C43,35.8,42.9,35.4,42.7,35.1 M40.5,35c0.6,0,1.1,0.5,1.1,1.1v1.1h-6.5l-0.1-0.2c-0.1-0.4-0.2-0.7-0.2-1v-2.7c0-1.1,0.9-2,2-2
		c0.5,0,1,0.2,1.4,0.6c0.4,0.4,0.6,0.9,0.6,1.4V35H40.5z M39.7,30.2h-1.8c-3.6,0-6.5-2.9-6.5-6.5V17l0.3,0.1
		c0.3,0.1,0.5,0.1,0.8,0.1c1.8,0,3.7-0.4,5.3-1.3l4.2-2.1l0.1,0.2c1,1.3,2.3,2.3,3.7,2.9l0.2,0.1v6.6C46.1,27.3,43.2,30.2,39.7,30.2
		 M33.8,36.9l0.1,0.3h-2.4v-7.6H33l0.1,0c0.5,0.4,1,0.7,1.6,1l0.3,0.2l-0.3,0.3c-0.6,0.6-1,1.5-1,2.3v2.7
		C33.7,36.4,33.7,36.6,33.8,36.9 M41.4,53.2c-2.6,0-4.7-2.1-4.7-4.7c0-2.6,2.1-4.7,4.7-4.7c2.6,0,4.7,2.1,4.7,4.7
		C46.1,51.1,44,53.2,41.4,53.2 M53.2,44.3h-3.3l-0.6-2.3h3.9V44.3z M53.2,40.8h-5.5l1.2,4.8h4.3v2.3h-5.9l0-0.2
		c-0.4-2.9-2.9-5.1-5.9-5.1c-2.9,0-5.5,2.2-5.9,5.1l0,0.2h-7.6V29c0-1.4,1-2.6,2.5-2.9l0.2,0l0.1,0.2c0.2,0.6,0.5,1.2,0.9,1.7
		l0.2,0.3l-0.4,0.1c-0.7,0.1-1.2,0.8-1.2,1.5v8.6H51v-3.4c0-1.8-0.7-3.5-2-4.7c-0.8-0.8-1.8-1.4-2.9-1.7l-0.4-0.1l0.2-0.3
		c0.4-0.5,0.7-1.1,0.9-1.6l0.1-0.2l0.2,0.1c1.4,0.4,2.6,1.1,3.6,2.1c1.6,1.6,2.5,3.7,2.5,6V40.8z"/>
	<path class="st0" d="M13.1,3.6c-3.3,0-6,2.7-6,6c0,3.3,2.7,6,6,6c3.3,0,6-2.7,6-6C19,6.2,16.3,3.6,13.1,3.6 M13.1,14.2
		c-2.6,0-4.7-2.1-4.7-4.7c0-2.6,2.1-4.7,4.7-4.7c2.6,0,4.7,2.1,4.7,4.7C17.7,12.1,15.6,14.2,13.1,14.2"/>
	<rect x="8.9" y="33.7" class="st0" width="1.3" height="1.3"/>
	<rect x="5.3" y="33.7" class="st0" width="1.3" height="1.3"/>
</g>
</svg>
