<?xml version="1.0" encoding="utf-8"?>
<!-- Generator: Adobe Illustrator 24.0.1, SVG Export Plug-In . SVG Version: 6.00 Build 0)  -->
<svg version="1.1" id="Layer_1" xmlns="http://www.w3.org/2000/svg" xmlns:xlink="http://www.w3.org/1999/xlink" x="0px" y="0px"
	 viewBox="0 0 57.9 54.5" style="enable-background:new 0 0 57.9 54.5;" xml:space="preserve">
<style type="text/css">
	.st0{clip-path:url(#SVGID_2_);fill:#FF7B00;}
	.st1{clip-path:url(#SVGID_2_);fill:#00446B;}
</style>
<g>
	<defs>
		<rect id="SVGID_1_" width="57.9" height="54.5"/>
	</defs>
	<clipPath id="SVGID_2_">
		<use xlink:href="#SVGID_1_"  style="overflow:visible;"/>
	</clipPath>
	<path class="st0" d="M32.1,41.9v3.4h1.8v-3.4c0-0.5-0.4-0.9-0.9-0.9C32.5,41,32.1,41.4,32.1,41.9"/>
	<path class="st0" d="M33.9,9.2h-1.8v0.7c0,0.5,0.4,0.9,0.9,0.9c0.5,0,0.9-0.4,0.9-0.9V9.2z"/>
	<rect x="0" y="9.2" class="st0" width="1.8" height="36.2"/>
	<path class="st0" d="M28.4,0H5.5C2.5,0,0,2.5,0,5.5v3.2h33.9V5.5C33.9,2.5,31.4,0,28.4,0 M32.1,6.9H1.8V5.5c0-2,1.7-3.7,3.7-3.7
		h22.9c2,0,3.7,1.7,3.7,3.7V6.9z"/>
	<path class="st1" d="M21.3,4.3c0,0.5-0.4,0.9-0.9,0.9h-6.9c-0.5,0-0.9-0.4-0.9-0.9c0-0.5,0.4-0.9,0.9-0.9h6.9
		C20.9,3.4,21.3,3.8,21.3,4.3"/>
	<path class="st0" d="M0,45.8V49c0,3,2.5,5.5,5.5,5.5h22.9c3,0,5.5-2.5,5.5-5.5v-3.2H0z M32.1,49c0,2-1.7,3.7-3.7,3.7H5.5
		c-2,0-3.7-1.7-3.7-3.7v-1.4h30.3V49z"/>
	<path class="st1" d="M21.3,50.2c0,0.5-0.4,0.9-0.9,0.9h-6.9c-0.5,0-0.9-0.4-0.9-0.9c0-0.5,0.4-0.9,0.9-0.9h6.9
		C20.9,49.3,21.3,49.7,21.3,50.2"/>
	<path class="st0" d="M46.5,17.8v-0.9c0-1.8-1.4-3.2-3.2-3.2H29.5c-0.5,0-0.9,0.4-0.9,0.9c0,0.5,0.4,0.9,0.9,0.9h13.7
		c0.8,0,1.4,0.6,1.4,1.4v0.9H46.5z"/>
	<path class="st0" d="M47.9,18.3h-3.2v11h1.8v-9.2h1.4c4.6,0,8.3,3.7,8.3,8.3v0.9h1.8v-0.9C57.9,22.9,53.4,18.3,47.9,18.3"/>
	<path class="st0" d="M44.7,34.4h-5c0.3,0.6,0.4,1.2,0.4,1.8h4.1C44.2,35.5,44.4,34.9,44.7,34.4"/>
	<path class="st0" d="M57.9,31.6v-1.8h-1.8h-9.7h-1.8H27.3h-0.9V33c0,1.8,1.4,3.2,3.2,3.2h0.9c0-0.6,0.2-1.2,0.4-1.8h-1.4
		c-0.8,0-1.4-0.6-1.4-1.4v-1.4h16.5h1.8h9.7V33c0,0.8-0.6,1.4-1.4,1.4h-1.4c0.3,0.5,0.4,1.2,0.4,1.8h0.9c1.8,0,3.2-1.4,3.2-3.2V31.6
		z"/>
	<path class="st1" d="M35.3,32.1c-2.4,0-4.3,1.9-4.3,4.3c0,2.4,1.9,4.3,4.3,4.3c2.4,0,4.3-1.9,4.3-4.3C39.6,34,37.7,32.1,35.3,32.1
		 M35.3,39c-1.4,0-2.5-1.1-2.5-2.5c0-1.4,1.1-2.5,2.5-2.5c1.4,0,2.5,1.1,2.5,2.5C37.8,37.8,36.7,39,35.3,39"/>
	<path class="st1" d="M49,32.1c-2.4,0-4.3,1.9-4.3,4.3c0,2.4,1.9,4.3,4.3,4.3c2.4,0,4.3-1.9,4.3-4.3C53.4,34,51.4,32.1,49,32.1
		 M49,39c-1.4,0-2.5-1.1-2.5-2.5c0-1.4,1.1-2.5,2.5-2.5c1.4,0,2.5,1.1,2.5,2.5C51.6,37.8,50.4,39,49,39"/>
	<path class="st1" d="M21.8,18.1c0,0.5,0.4,0.9,0.9,0.9h8c0.5,0,0.9-0.4,0.9-0.9c0-0.5-0.4-0.9-0.9-0.9h-8
		C22.2,17.2,21.8,17.6,21.8,18.1"/>
	<path class="st1" d="M29.3,22.7c0-0.5-0.4-0.9-0.9-0.9H18.1c-0.5,0-0.9,0.4-0.9,0.9c0,0.5,0.4,0.9,0.9,0.9h10.3
		C28.9,23.6,29.3,23.2,29.3,22.7"/>
	<path class="st1" d="M23.8,26.4H13.5c-0.5,0-0.9,0.4-0.9,0.9c0,0.5,0.4,0.9,0.9,0.9h10.3c0.5,0,0.9-0.4,0.9-0.9
		C24.7,26.8,24.3,26.4,23.8,26.4"/>
</g>
</svg>
